<?xml version="1.0" encoding="iso-8859-1"?>
<!-- Generator: Adobe Illustrator 19.0.0, SVG Export Plug-In . SVG Version: 6.00 Build 0)  -->
<svg version="1.1" id="Layer_1" xmlns="http://www.w3.org/2000/svg" xmlns:xlink="http://www.w3.org/1999/xlink" x="0px" y="0px"
	 viewBox="0 0 512 512" style="enable-background:new 0 0 512 512;" xml:space="preserve">
<circle style="fill:#2D4452;" cx="240" cy="272" r="240"/>
<path style="fill:#F5F5F5;" d="M473.876,162.22c0.4-4.412,0.628-8.868,0.628-13.38C474.504,66.64,408.548,0,327.192,0
	C256.172,0,196.9,50.788,182.98,118.372c-0.448-0.004-0.872-0.068-1.312-0.068c-51.768,0-93.748,41.86-93.748,93.632
	c0,51.764,41.968,93.624,93.748,93.624h252.656c42.904,0,77.676-34.452,77.676-77.096C512,200.204,496.676,175.668,473.876,162.22z"
	/>
<g>
	<path style="fill:#E6E6E6;" d="M473.876,162.22c0.4-4.412,0.628-8.868,0.628-13.38C474.504,66.64,408.548,0,327.192,0
		c-3.496,0-6.924,0.22-10.36,0.452C393.02,6.188,453.08,70.408,453.08,148.84c0,4.512-0.236,8.968-0.624,13.38
		c22.796,13.448,38.116,37.984,38.116,66.252c0,42.64-34.764,77.092-77.672,77.092h21.424c42.904,0,77.676-34.452,77.676-77.092
		C512,200.204,496.676,175.668,473.876,162.22z"/>
	<path style="fill:#E6E6E6;" d="M187.164,102.668c-1.844,6.14-3.536,12.808-4.172,15.652c-0.436-0.012-0.884-0.016-1.324-0.016
		c-16.812,0-32.56,4.484-46.196,12.236c11.784-4.404,24.656-6.876,38.152-6.876c29.068,0,55.256,11.228,73.78,29.236
		C236.804,129.32,209.408,105.192,187.164,102.668z"/>
</g>
<polygon style="fill:#FFD464;" points="284,208 196,296 244,296 152,460 360,272 256,272 "/>
<g>
	<polygon style="fill:#F2C655;" points="244,272 256,272 284,208 262.668,229.332 	"/>
	<polygon style="fill:#F2C655;" points="348,272 164.344,438 152,460 360,272 	"/>
</g>
<polygon style="fill:#FFD464;" points="156,316 120,352 144,352 132,392 180,340 144,340 "/>
<g>
	<polygon style="fill:#F2C655;" points="136,340 144,340 156,316 140,332 	"/>
	<polygon style="fill:#F2C655;" points="172,340 135.852,379.16 132,392 180,340 	"/>
</g>
<g>
</g>
<g>
</g>
<g>
</g>
<g>
</g>
<g>
</g>
<g>
</g>
<g>
</g>
<g>
</g>
<g>
</g>
<g>
</g>
<g>
</g>
<g>
</g>
<g>
</g>
<g>
</g>
<g>
</g>
</svg>
